#!OML:ASF E:\emotionWalksFemale\Project 1\Capture day 1\Session 1\Female1.ASF
:FULLY-SPECIFIED
:DEGREES
1298
root 9.26404 15.2642 -36.2609 -1.39844 -12.9428 -2.63965
lowerback 8.9128 2.66149 0.562775
upperback 0.793946 3.63072 0.881309
thorax -4.18922 1.79336 0.149003
lowerneck -4.3666 1.58251 1.11583
upperneck 5.46634 2.53473 -7.93154
head 2.66492 1.04065 -2.69903
rclavicle -3.54085e-015 -2.23633e-015
rhumerus -28.9534 11.7655 -91.6714
rradius 33.7649
rwrist 16.4945
rhand -5.84439 -50.2954
rfingers 7.12502
rthumb 19.9819 -79.288
lclavicle -3.54085e-015 -2.23633e-015
lhumerus -36.4919 6.92714 79.9976
lradius 34.705
lwrist -13.5753
lhand -8.76127 -32.2975
lfingers 7.12502
lthumb 17.1762 -3.03667
rfemur 2.08026 9.31878 32.2232
rtibia 21.9583
rfoot -22.6387 -28.9267
rtoes 6.37894
lfemur -17.9785 -17.7125 -14.9258
ltibia 35.0022
lfoot -19.8168 -11.0749
ltoes -20.1532
1299
root 9.23798 15.2578 -36.2962 -1.54712 -12.925 -2.75439
lowerback 9.20972 2.77456 0.522074
upperback 0.869841 3.77758 0.86371
thorax -4.27761 1.86556 0.122186
lowerneck -4.46741 1.51327 1.08727
upperneck 5.37447 2.429 -7.77501
head 2.64279 0.992466 -2.64321
rclavicle 1.6027e-014 7.95139e-015
rhumerus -28.8233 11.6395 -91.7559
rradius 33.7383
rwrist 16.3948
rhand -5.70921 -50.3746
rfingers 7.12502
rthumb 20.1119 -79.3536
lclavicle 1.6027e-014 7.95139e-015
lhumerus -36.6187 6.79358 80.0783
lradius 34.5837
lwrist -13.8175
lhand -8.68127 -32.6766
lfingers 7.12502
lthumb 17.2532 -3.42246
rfemur 2.21015 9.5048 32.5446
rtibia 21.8427
rfoot -22.4381 -29.1332
rtoes 6.52362
lfemur -17.9686 -17.5529 -14.6931
ltibia 35.1055
lfoot -19.9282 -11.6971
ltoes -20.2861
1300
root 9.21408 15.2536 -36.331 -1.51154 -12.5799 -2.80524
lowerback 9.32713 2.79378 0.482753
upperback 0.852523 3.79804 0.81136
thorax -4.36015 1.87529 0.0806229
lowerneck -4.5827 1.42153 1.15646
upperneck 5.3459 2.2977 -7.72698
head 2.64819 0.928637 -2.64447
rclavicle 1.36664e-016 1.59028e-014
rhumerus -28.8412 11.437 -91.8363
rradius 33.7052
rwrist 16.3744
rhand -6.04082 -49.9295
rfingers 7.12502
rthumb 19.7931 -78.9417
lclavicle 1.36664e-016 1.59028e-014
lhumerus -36.6853 6.62709 80.1531
lradius 34.2665
lwrist -14.2091
lhand -8.16007 -33.2326
lfingers 7.12502
lthumb 17.7548 -4.02321
rfemur 2.1225 9.51342 32.7627
rtibia 21.7264
rfoot -22.3673 -29.357
rtoes 7.19233
lfemur -18.2874 -17.5712 -14.4666
ltibia 35.2399
lfoot -19.9453 -11.7998
ltoes -21.004
1301
root 9.19168 15.2518 -36.3623 -1.36933 -12.0477 -2.95514
lowerback 9.37271 2.72193 0.531907
upperback 0.753555 3.71127 0.842496
thorax -4.48764 1.83096 0.0912283
lowerneck -4.52707 1.31894 1.18232
upperneck 5.28072 2.15684 -7.78247
head 2.61046 0.860284 -2.67259
rclavicle -1.45113e-014 -5.46658e-015
rhumerus -29.0731 11.3987 -91.8671
rradius 33.7523
rwrist 16.3326
rhand -6.29791 -49.6641
rfingers 7.12502
rthumb 19.546 -78.7016
lclavicle -1.45113e-014 -5.46658e-015
lhumerus -36.9154 6.54586 80.3544
lradius 34.1786
lwrist -14.3371
lhand -7.22771 -32.6949
lfingers 7.12502
lthumb 18.6518 -3.56915
rfemur 1.93351 9.50031 33.0835
rtibia 21.6165
rfoot -22.4147 -29.7641
rtoes 8.07494
lfemur -18.7519 -17.6798 -14.1109
ltibia 35.3775
lfoot -19.7984 -11.9721
ltoes -20.8242
1302
root 9.17801 15.2519 -36.3882 -1.16701 -11.1962 -3.13885
lowerback 9.02675 2.45306 0.970159
upperback 0.841211 3.38985 0.77143
thorax -4.1727 1.66613 -0.166233
lowerneck -4.49523 1.2642 1.02805
upperneck 5.00452 2.06496 -7.61106
head 2.50052 0.823518 -2.58543
rclavicle 1.57537e-014 4.96962e-015
rhumerus -29.0064 11.5444 -91.9888
rradius 33.8214
rwrist 16.2252
rhand -6.20612 -49.8654
rfingers 7.12502
rthumb 19.6342 -78.8939
lclavicle 1.57537e-014 4.96962e-015
lhumerus -36.8877 6.56107 80.4561
lradius 33.9951
lwrist -14.5474
lhand -6.94481 -31.8304
lfingers 7.12502
lthumb 18.9239 -2.73097
rfemur 1.6947 9.28743 33.3906
rtibia 21.4624
rfoot -22.5822 -30.1793
rtoes 8.98478
lfemur -19.3463 -18.0164 -13.7259
ltibia 35.5005
lfoot -19.5881 -12.3655
ltoes -20.797
